<svg width="1176" height="225" viewBox="0 0 1176 225" fill="none" xmlns="http://www.w3.org/2000/svg">
<path d="M9.53477 151.204C11.9244 151.013 13.5733 150.726 14.4814 150.344C15.3895 149.914 15.9869 149.173 16.2736 148.121C16.5604 147.022 16.7038 145.11 16.7038 142.386V111.129C12.6413 111.273 9.86932 111.512 8.38773 111.846C6.95393 112.133 5.97417 112.826 5.44844 113.925C4.92271 114.977 4.44478 117.056 4.01464 120.162L0.64521 120.449C1.21873 115.909 1.57718 111.775 1.72056 108.047L2.36577 107.473L8.31604 108.262H30.5399L36.6336 107.473L37.2788 108.047C37.4222 111.966 37.7806 116.004 38.3542 120.162L34.9847 120.449C34.459 117.295 33.9333 115.168 33.4075 114.069C32.8818 112.969 31.9498 112.253 30.6116 111.918C29.2734 111.583 26.6926 111.321 22.8691 111.129C22.5824 113.997 22.3195 119.063 22.0805 126.328C21.8416 133.592 21.7221 140.14 21.7221 145.971C21.7221 147.739 22.0327 149.006 22.654 149.77C23.2754 150.487 24.3268 150.846 25.8084 150.846C27.2422 150.846 28.5565 150.774 29.7514 150.631L29.9664 150.917L29.3212 154.215L26.9554 154.143L18.7828 154C16.1541 154 12.8803 154.096 8.96125 154.287L9.53477 151.204ZM43.3652 151.563C45.1335 151.371 46.3284 150.941 46.9497 150.272C47.571 149.603 47.8816 148.456 47.8816 146.831L47.9533 124.105C47.9533 122.91 47.81 122.122 47.5232 121.739C47.2364 121.309 46.6629 121.094 45.8026 121.094L43.867 121.166L43.7236 120.879L44.1538 118.155C44.7273 118.155 45.8504 118.179 47.5232 118.227C49.196 118.274 51.0121 118.298 52.9716 118.298C60.9531 118.298 66.8556 118.083 70.6791 117.653L70.8941 118.012C70.7985 118.537 70.5835 119.732 70.2489 121.596C69.9144 123.46 69.6754 125.467 69.532 127.618L66.0909 127.905C66.0909 127.714 66.1148 127.403 66.1626 126.973C66.2104 126.495 66.2343 126.017 66.2343 125.539C66.2343 124.296 66.0431 123.436 65.6608 122.958C65.3262 122.432 64.5854 122.098 63.4384 121.955C62.3391 121.763 60.4035 121.668 57.6315 121.668C56.3411 121.668 55.4569 121.716 54.979 121.811C54.501 121.859 54.1904 122.026 54.047 122.313C53.9036 122.552 53.808 123.03 53.7602 123.747L53.3301 133.927L59.2087 133.998C60.0689 133.998 61.3355 133.927 63.0082 133.783C64.681 133.592 65.7802 133.473 66.306 133.425L66.5927 133.783L65.7325 137.511C65.2067 137.511 64.1553 137.487 62.5781 137.44C61.0487 137.392 59.4237 137.368 57.7032 137.368C56.365 137.368 54.8595 137.487 53.1867 137.726C53.0433 141.359 52.9716 144.633 52.9716 147.548C52.9716 148.647 53.0433 149.412 53.1867 149.842C53.3779 150.272 53.7602 150.559 54.3337 150.702C54.9551 150.846 55.9587 150.917 57.3447 150.917C60.4513 150.917 62.6737 150.774 64.0119 150.487C65.3501 150.2 66.2821 149.627 66.8078 148.767C67.3813 147.859 67.8354 146.329 68.1699 144.178L71.3243 143.892L71.611 144.25C71.4677 144.776 71.2048 146.019 70.8224 147.978C70.4879 149.89 70.225 151.897 70.0339 154L69.6037 154.358C68.3133 154.311 65.6369 154.239 61.5744 154.143C57.512 154.048 54.2143 154 51.6812 154C49.7217 154 47.9055 154.072 46.2328 154.215C44.56 154.406 43.4847 154.526 43.0067 154.574L43.3652 151.563ZM108.59 123.532C108.59 121.955 107.944 121.166 106.654 121.166H104.503L104.36 120.879L104.862 118.083C105.292 118.131 106.104 118.179 107.299 118.227C108.494 118.274 109.713 118.298 110.955 118.298C112.007 118.298 113.178 118.251 114.468 118.155C115.806 118.012 116.667 117.916 117.049 117.868L116.762 120.808C115.376 120.999 114.373 121.381 113.751 121.955C113.178 122.48 112.867 123.293 112.819 124.392L111.959 155.219L109.163 156.007C104.623 149.364 100.035 142.864 95.3987 136.508C90.7627 130.151 88.4447 127.021 88.4447 127.116H88.0863L87.8712 148.838C87.8712 149.746 88.0146 150.368 88.3014 150.702C88.5881 151.037 89.0661 151.204 89.7352 151.204L92.6028 151.132L92.8178 151.347L92.2443 154.215C91.8142 154.167 90.9539 154.119 89.6635 154.072C88.4208 154.024 87.1065 154 85.7205 154C84.6213 154 83.4503 154.048 82.2077 154.143C80.9651 154.287 80.1526 154.382 79.7703 154.43L80.1287 151.491C81.3235 151.347 82.2077 151.013 82.7812 150.487C83.3548 149.914 83.6654 149.077 83.7132 147.978L84.5018 124.32C84.5018 123.126 84.1433 122.313 83.4264 121.883C82.7573 121.405 81.443 121.046 79.4835 120.808L79.1967 120.449L79.6986 118.012C80.0809 118.059 80.7978 118.131 81.8493 118.227C82.9485 118.274 84.0478 118.298 85.147 118.298C86.1985 118.298 87.1304 118.274 87.9429 118.227C88.7554 118.179 89.2811 118.131 89.5201 118.083C93.3914 123.771 97.4777 129.578 101.779 135.504C106.128 141.43 108.303 144.346 108.303 144.25H108.661L108.59 123.532ZM126.564 151.419C128.476 151.276 129.814 151.037 130.579 150.702C131.391 150.368 131.893 149.818 132.084 149.053C132.323 148.241 132.443 146.855 132.443 144.895V121.166C129.432 121.262 127.401 121.429 126.349 121.668C125.298 121.907 124.509 122.48 123.983 123.388C123.505 124.249 123.099 125.898 122.765 128.335L119.395 128.55C119.491 127.929 119.634 126.567 119.825 124.464C120.064 122.313 120.208 120.21 120.255 118.155L120.829 117.653L125.919 118.227H144.2L149.433 117.653L150.007 118.155C150.055 120.258 150.174 122.337 150.365 124.392C150.556 126.447 150.7 127.761 150.795 128.335L147.498 128.55C147.115 126.065 146.661 124.368 146.136 123.46C145.658 122.504 144.917 121.907 143.913 121.668C142.957 121.429 141.093 121.262 138.321 121.166C138.082 123.46 137.867 127.284 137.676 132.636C137.485 137.941 137.389 142.84 137.389 147.333C137.389 148.719 137.652 149.699 138.178 150.272C138.704 150.846 139.564 151.132 140.759 151.132C141.619 151.132 142.312 151.109 142.838 151.061C143.411 151.013 143.77 150.989 143.913 150.989L144.128 151.204L143.626 154.215C142.957 154.215 141.715 154.167 139.899 154.072C138.082 154.024 136.314 154 134.593 154C132.873 154 131.176 154.024 129.504 154.072C127.831 154.167 126.684 154.239 126.062 154.287L126.564 151.419ZM170.456 154.143L170.671 151.563C172.678 151.419 174.016 151.204 174.686 150.917C175.402 150.631 175.761 150.153 175.761 149.484C175.761 148.719 175.594 147.906 175.259 147.046L173.539 141.526C172.583 141.478 170.599 141.454 167.588 141.454C166.202 141.454 164.147 141.598 161.423 141.884L159.416 147.189C159.081 148.289 158.914 148.958 158.914 149.197C158.914 149.961 159.177 150.511 159.702 150.846C160.228 151.18 161.088 151.347 162.283 151.347H165.366L165.581 151.634L165.151 154.358C164.673 154.311 163.574 154.239 161.853 154.143C160.18 154.048 158.531 154 156.906 154C155.377 154 153.991 154.024 152.748 154.072C151.554 154.119 150.741 154.143 150.311 154.143L150.741 151.204C151.793 151.061 152.629 150.702 153.25 150.129C153.872 149.507 154.493 148.48 155.114 147.046L166.37 118.585L171.46 117.653L171.961 117.725C171.961 117.916 173.037 121.692 175.187 129.052C177.386 136.412 179.345 142.506 181.066 147.333C181.544 148.719 182.141 149.699 182.858 150.272C183.623 150.798 184.818 151.132 186.443 151.276L186.586 151.563L186.228 154.143C185.75 154.143 184.866 154.119 183.575 154.072C182.285 154.024 180.994 154 179.704 154C177.744 154 175.88 154.072 174.112 154.215C172.344 154.358 171.197 154.454 170.671 154.502L170.456 154.143ZM167.445 138.515C169.118 138.515 170.862 138.419 172.678 138.228L168.305 124.32H167.803L162.57 138.515H167.445ZM219.905 123.532C219.905 121.955 219.26 121.166 217.97 121.166H215.819L215.675 120.879L216.177 118.083C216.607 118.131 217.42 118.179 218.615 118.227C219.81 118.274 221.028 118.298 222.271 118.298C223.322 118.298 224.493 118.251 225.784 118.155C227.122 118.012 227.982 117.916 228.365 117.868L228.078 120.808C226.692 120.999 225.688 121.381 225.067 121.955C224.493 122.48 224.183 123.293 224.135 124.392L223.275 155.219L220.479 156.007C215.938 149.364 211.35 142.864 206.714 136.508C202.078 130.151 199.76 127.021 199.76 127.116H199.402L199.187 148.838C199.187 149.746 199.33 150.368 199.617 150.702C199.904 151.037 200.382 151.204 201.051 151.204L203.918 151.132L204.133 151.347L203.56 154.215C203.13 154.167 202.269 154.119 200.979 154.072C199.736 154.024 198.422 154 197.036 154C195.937 154 194.766 154.048 193.523 154.143C192.281 154.287 191.468 154.382 191.086 154.43L191.444 151.491C192.639 151.347 193.523 151.013 194.097 150.487C194.67 149.914 194.981 149.077 195.029 147.978L195.817 124.32C195.817 123.126 195.459 122.313 194.742 121.883C194.073 121.405 192.759 121.046 190.799 120.808L190.512 120.449L191.014 118.012C191.396 118.059 192.113 118.131 193.165 118.227C194.264 118.274 195.363 118.298 196.463 118.298C197.514 118.298 198.446 118.274 199.258 118.227C200.071 118.179 200.597 118.131 200.836 118.083C204.707 123.771 208.793 129.578 213.095 135.504C217.444 141.43 219.618 144.346 219.618 144.25H219.977L219.905 123.532ZM251.109 154.645C245.852 154.645 241.646 153.092 238.491 149.985C235.385 146.831 233.832 142.601 233.832 137.296C233.832 133.377 234.692 129.936 236.412 126.973C238.133 124.01 240.546 121.716 243.653 120.091C246.807 118.466 250.44 117.653 254.55 117.653C256.032 117.653 257.609 117.749 259.281 117.94C261.002 118.131 262.46 118.346 263.655 118.585C264.897 118.824 265.686 118.967 266.02 119.015L266.307 119.445C266.259 119.684 266.116 120.258 265.877 121.166C265.686 122.026 265.471 123.173 265.232 124.607C265.041 125.993 264.897 127.475 264.802 129.052L261.289 129.339C261.289 129.147 261.313 128.789 261.36 128.263C261.408 127.69 261.432 127.045 261.432 126.328C261.432 124.655 260.787 123.46 259.497 122.743C258.206 121.978 256.103 121.596 253.188 121.596C248.934 121.596 245.66 122.791 243.366 125.181C241.12 127.522 239.997 130.94 239.997 135.432C239.997 140.259 241.12 144.083 243.366 146.903C245.613 149.675 248.647 151.061 252.471 151.061C253.809 151.061 255.028 150.917 256.127 150.631C257.226 150.344 258.087 150.057 258.708 149.77C259.377 149.484 259.783 149.292 259.927 149.197V142.888C259.927 141.693 259.712 140.905 259.281 140.522C258.899 140.14 258.087 139.949 256.844 139.949H253.044L252.901 139.662L253.475 136.508C253.666 136.508 254.55 136.532 256.127 136.579C257.752 136.627 259.401 136.651 261.074 136.651C262.173 136.651 263.248 136.627 264.3 136.579C265.399 136.484 266.092 136.412 266.379 136.364L266.666 137.941C265.901 138.515 265.375 139.399 265.088 140.594C264.849 141.789 264.73 143.844 264.73 146.759C264.73 148.91 264.849 150.535 265.088 151.634L264.73 152.208C264.395 152.351 263.607 152.614 262.364 152.996C261.169 153.379 259.568 153.737 257.561 154.072C255.554 154.454 253.403 154.645 251.109 154.645Z" fill="#EBF4F6"/>
<path d="M328.599 181.231C317.07 181.231 310.884 176.592 310.041 167.313C309.9 163.376 310.955 159.862 313.204 156.769C315.594 153.535 318.617 151.918 322.272 151.918C324.943 151.918 327.263 153.043 329.231 155.292C331.059 157.401 331.973 159.651 331.973 162.041C331.973 168.649 328.88 171.952 322.694 171.952C321.147 171.952 319.671 171.601 318.265 170.898C317 170.336 316.016 169.351 315.313 167.946C316.156 173.007 320.374 175.537 327.966 175.537C329.653 175.537 331.2 175.327 332.606 174.905C344.696 171.671 354.889 164.712 363.184 154.027C366.839 149.388 370.916 142.78 375.415 134.204C379.914 125.628 384.905 115.224 390.388 102.993L418.225 41.2034C419.631 38.1104 421.177 35.3689 422.865 32.9788C424.692 30.4482 426.59 28.0582 428.558 25.8087C411.406 25.2464 393.903 27.9176 376.048 33.8224C357.209 40.1489 343.431 48.725 334.714 59.5504C330.637 64.7523 328.599 69.5323 328.599 73.8906C328.599 82.7478 334.996 87.1764 347.789 87.1764C363.535 87.1764 376.329 80.9904 386.17 68.6185C388.56 65.6661 390.81 62.1513 392.919 58.0742C395.168 53.8565 397.207 48.9358 399.034 43.3122C399.456 42.3281 400.019 41.836 400.722 41.836C401.846 41.836 402.198 42.6093 401.776 44.1558C401.214 45.9834 400.651 47.8111 400.089 49.6388C399.667 51.4665 399.105 53.2238 398.402 54.9109C397.277 58.2851 395.941 61.4484 394.395 64.4008C392.848 67.2126 391.161 69.8135 389.334 72.2035C379.914 85.419 366.558 92.0268 349.265 92.0268C341.252 92.0268 334.996 89.9179 330.497 85.7002C325.857 81.4825 323.537 76.2104 323.537 69.8838C323.537 64.2602 325.506 58.496 329.442 52.5912C336.05 42.6093 348.984 34.6659 368.245 28.7611C376.681 26.2305 385.397 24.3325 394.395 23.0672C403.533 21.6613 412.953 20.9584 422.654 20.9584C424.481 20.9584 426.239 20.9584 427.926 20.9584C429.753 20.9584 431.511 21.0287 433.198 21.1692C441.774 13.718 450.701 9.99232 459.98 9.99232C463.636 9.99232 467.361 10.7656 471.157 12.3121C471.86 12.5932 472.212 13.1556 472.212 13.9991C472.212 15.6862 471.72 16.3189 470.736 15.8971C468.205 14.6318 465.393 13.9991 462.3 13.9991C455.411 13.9991 448.874 16.7407 442.688 22.2237C454.216 22.3643 463.214 24.8246 469.681 29.6047C478.819 36.353 482.967 44.2964 482.123 53.4347C480.858 67.7749 471.931 79.4439 455.341 88.4417C442.688 95.4712 429.613 98.986 416.116 98.986C415.132 98.986 414.078 98.986 412.953 98.986C411.969 98.986 410.914 98.9157 409.79 98.7751C408.805 101.868 407.4 105.594 405.572 109.952C403.744 114.17 401.565 118.95 399.034 124.292C393.27 136.524 384.624 148.263 373.096 159.51C358.193 173.991 343.361 181.231 328.599 181.231ZM415.905 94.3465C425.465 94.3465 434.534 91.3941 443.11 85.4893C451.123 80.0063 457.661 72.555 462.722 63.1355C464.971 58.9178 466.096 54.8406 466.096 50.9041C466.096 43.8746 463.284 38.0401 457.661 33.4006C452.037 28.9017 445.359 26.9335 437.627 27.4958C435.236 30.5888 432.636 35.2283 429.824 41.4143C427.012 47.4596 424.06 55.0515 420.967 64.1899C419.279 69.1106 417.663 74.1015 416.116 79.1628C414.57 84.224 413.023 89.215 411.477 94.1356C412.18 94.2762 412.883 94.3465 413.586 94.3465C414.429 94.3465 415.202 94.3465 415.905 94.3465ZM475.054 169C470.977 169 468.938 166.961 468.938 162.884C468.938 160.354 469.782 156.909 471.469 152.551L512.38 47.9517C512.662 47.5299 512.802 47.1082 512.802 46.6864C512.802 46.2646 512.802 45.9132 512.802 45.632C512.802 43.5231 511.959 41.344 510.272 39.0945H521.659C525.596 39.0945 527.564 40.0083 527.564 41.836C527.564 42.6796 527.142 44.1558 526.299 46.2646L485.387 150.442C483.559 154.941 482.646 158.948 482.646 162.463C482.646 165.696 483.63 167.875 485.598 169H475.054ZM519.72 168.789C510.722 168.789 506.224 164.571 506.224 156.136C506.224 153.184 507.067 149.247 508.754 144.326C510.441 139.265 512.831 133.29 515.924 126.401L527.523 100.884C528.788 97.9316 531.53 96.4554 535.748 96.4554H548.401C543.48 100.111 538.981 106.016 534.904 114.17C533.358 117.263 531.46 121.129 529.21 125.768C527.101 130.267 524.641 135.469 521.829 141.374C519.158 146.857 517.822 151.778 517.822 156.136C517.822 160.635 519.369 162.884 522.462 162.884C525.836 162.884 529.843 160.213 534.482 154.871C542.215 145.873 552.618 127.877 565.693 100.884C567.24 97.9316 569.911 96.4554 573.707 96.4554H585.095C580.455 100.251 575.605 107.211 570.544 117.333C563.514 131.533 559.296 142.358 557.891 149.809C557.75 150.653 557.609 151.426 557.469 152.129C557.469 152.832 557.469 153.535 557.469 154.238C557.469 159.721 559.367 162.463 563.163 162.463C567.24 162.463 572.02 158.456 577.503 150.442L580.666 151.918C573.074 163.166 565.553 168.789 558.101 168.789C550.228 168.789 546.292 163.798 546.292 153.816C546.292 150.02 546.995 146.013 548.401 141.796C537.997 159.791 528.437 168.789 519.72 168.789ZM580.038 170.476C582.85 163.587 586.365 155.082 590.583 144.959C594.8 134.837 599.932 123.168 605.977 109.952C607.243 107.14 608.438 104.821 609.562 102.993C610.687 101.165 611.742 99.7593 612.726 98.7751C614.694 96.8069 617.225 95.8227 620.318 95.8227C620.599 95.8227 621.091 95.8227 621.794 95.8227C622.497 95.8227 623.481 95.9633 624.746 96.2445C626.714 96.3851 628.191 96.3851 629.175 96.2445C623.973 99.3375 616.17 112.975 605.767 137.156C607.313 135.188 609.281 132.728 611.671 129.775C614.061 126.682 617.154 123.308 620.95 119.653C624.887 115.857 628.12 112.904 630.651 110.796C633.182 108.687 634.939 107.281 635.923 106.578C642.109 101.938 646.678 99.6187 649.631 99.6187C653.708 99.6187 655.746 101.587 655.746 105.523C655.746 106.789 655.465 107.984 654.903 109.109C653.216 112.342 651.037 116.419 648.365 121.34C645.835 126.261 642.882 132.025 639.508 138.632C646.257 130.197 652.091 123.8 657.012 119.442C659.542 117.192 662.354 115.013 665.447 112.904C668.681 110.796 672.125 108.687 675.781 106.578C683.794 101.938 689.84 99.6187 693.917 99.6187C694.901 99.6187 695.604 99.689 696.026 99.8295C693.776 103.766 691.667 107.562 689.699 111.217C687.871 114.873 686.114 118.317 684.427 121.551C680.49 129.283 677.397 135.891 675.148 141.374C672.898 146.857 671.422 151.145 670.719 154.238C670.579 155.222 670.438 156.136 670.297 156.98C670.297 157.823 670.297 158.596 670.297 159.299C670.297 162.955 671.633 164.782 674.304 164.782C678.663 164.782 683.864 160.354 689.91 151.497L692.862 153.605C685.692 164.431 678.522 169.844 671.352 169.844C662.495 169.844 658.066 165.274 658.066 156.136C658.066 148.544 662.565 137.508 671.563 123.027C672.969 120.778 673.672 118.88 673.672 117.333C673.672 115.646 672.969 114.802 671.563 114.802C670.016 114.802 667.978 115.646 665.447 117.333C662.916 118.88 660.034 121.129 656.801 124.081C654.13 126.612 651.318 129.635 648.365 133.149C645.554 136.664 642.531 140.671 639.297 145.17C632.268 155.433 628.12 163.376 626.855 169C624.465 169 622.637 167.875 621.372 165.626C620.388 163.658 619.896 161.689 619.896 159.721C619.896 156.909 620.88 153.184 622.848 148.544C624.817 143.905 627.558 138.281 631.073 131.673C635.15 124.363 637.188 119.09 637.188 115.857C637.188 114.451 636.626 113.748 635.501 113.748C633.252 113.748 628.261 117.263 620.529 124.292C618.56 126.12 616.451 128.44 614.202 131.251C612.093 133.923 609.844 137.086 607.454 140.741C601.971 148.896 597.753 157.05 594.8 165.204C593.957 167.313 591.778 168.578 588.263 169C583.764 169.422 581.023 169.914 580.038 170.476ZM718.177 169.422C706.086 169.422 700.041 163.939 700.041 152.973C700.041 150.583 700.603 147.279 701.728 143.061C702.993 138.843 704.539 134.134 706.367 128.932C708.335 123.589 710.444 118.247 712.694 112.904C714.943 107.421 717.052 102.29 719.02 97.5098L739.898 47.9517C740.179 46.827 740.32 46.0537 740.32 45.632C740.32 43.5231 739.476 41.344 737.789 39.0945H749.388C753.184 39.0945 755.082 40.0083 755.082 41.836C755.082 42.6796 754.66 44.1558 753.816 46.2646C749.317 56.9495 743.694 70.3759 736.946 86.5438C730.197 102.571 722.394 121.34 713.537 142.85C711.569 147.911 710.585 152.199 710.585 155.714C710.585 162.322 712.975 165.626 717.755 165.626C722.676 165.626 729.002 161.057 736.735 151.918C739.968 147.982 742.921 143.834 745.592 139.476C748.404 135.118 750.723 130.549 752.551 125.768C754.801 120.285 755.925 115.224 755.925 110.585C755.925 106.508 754.941 103.696 752.973 102.149C751.145 100.462 748.333 99.6187 744.537 99.6187H743.483C741.234 99.6187 740.109 98.9157 740.109 97.5098C740.109 95.9633 741.515 95.1901 744.327 95.1901C744.748 95.1901 745.24 95.1901 745.803 95.1901C746.365 95.1901 746.927 95.2604 747.49 95.401C759.299 97.088 765.204 104.469 765.204 117.544C765.204 127.807 761.76 137.93 754.871 147.911C745.029 162.252 732.798 169.422 718.177 169.422ZM781.68 168.789C772.682 168.789 768.183 164.571 768.183 156.136C768.183 153.184 769.026 149.247 770.714 144.326C772.401 139.265 774.791 133.29 777.884 126.401L789.482 100.884C790.748 97.9316 793.489 96.4554 797.707 96.4554H810.36C805.439 100.111 800.941 106.016 796.863 114.17C795.317 117.263 793.419 121.129 791.169 125.768C789.061 130.267 786.6 135.469 783.788 141.374C781.117 146.857 779.782 151.778 779.782 156.136C779.782 160.635 781.328 162.884 784.421 162.884C787.795 162.884 791.802 160.213 796.442 154.871C804.174 145.873 814.578 127.877 827.653 100.884C829.199 97.9316 831.87 96.4554 835.666 96.4554H847.054C842.415 100.251 837.564 107.211 832.503 117.333C825.474 131.533 821.256 142.358 819.85 149.809C819.709 150.653 819.569 151.426 819.428 152.129C819.428 152.832 819.428 153.535 819.428 154.238C819.428 159.721 821.326 162.463 825.122 162.463C829.199 162.463 833.979 158.456 839.462 150.442L842.626 151.918C835.034 163.166 827.512 168.789 820.061 168.789C812.188 168.789 808.251 163.798 808.251 153.816C808.251 150.02 808.954 146.013 810.36 141.796C799.956 159.791 790.396 168.789 781.68 168.789ZM841.998 170.476C844.81 163.587 848.324 155.082 852.542 144.959C856.76 134.837 861.891 123.168 867.937 109.952C869.202 107.14 870.397 104.821 871.522 102.993C872.647 101.165 873.701 99.7593 874.685 98.7751C876.653 96.8069 879.184 95.8227 882.277 95.8227C882.558 95.8227 883.05 95.8227 883.753 95.8227C884.456 95.8227 885.44 95.9633 886.706 96.2445C888.674 96.3851 890.15 96.3851 891.134 96.2445C885.932 99.3375 878.13 112.975 867.726 137.156C869.413 134.766 871.662 132.165 874.474 129.354C877.427 126.401 880.871 123.168 884.808 119.653C887.338 117.263 890.15 115.013 893.243 112.904C896.336 110.655 899.71 108.546 903.366 106.578C911.66 101.938 917.776 99.6187 921.713 99.6187C922.697 99.6187 923.4 99.689 923.821 99.8295C921.572 103.766 919.463 107.562 917.495 111.217C915.667 114.873 913.91 118.317 912.223 121.551C904.068 137.297 899.499 148.193 898.515 154.238C898.375 155.222 898.234 156.136 898.093 156.98C898.093 157.823 898.093 158.596 898.093 159.299C898.093 162.955 899.429 164.782 902.1 164.782C906.459 164.782 911.66 160.354 917.706 151.497L920.658 153.605C913.488 164.431 906.248 169.844 898.937 169.844C890.08 169.844 885.651 165.274 885.651 156.136C885.651 148.685 890.22 137.648 899.359 123.027C900.765 120.778 901.468 118.88 901.468 117.333C901.468 115.646 900.694 114.802 899.148 114.802C897.601 114.802 895.563 115.646 893.032 117.333C890.642 118.88 887.76 121.199 884.386 124.292C879.043 129.213 874.052 135.118 869.413 142.007C864.773 148.755 860.556 156.487 856.76 165.204C855.916 167.313 853.737 168.578 850.222 169C845.723 169.422 842.982 169.914 841.998 170.476ZM921.487 224.041C914.036 224.041 908.482 221.581 904.827 216.66C903.28 214.27 902.507 211.107 902.507 207.17C902.507 204.077 902.929 201.828 903.772 200.422L907.568 200.211C906.865 202.742 906.514 204.921 906.514 206.749C906.514 214.34 910.943 218.136 919.8 218.136C927.954 218.136 936.249 211.599 944.684 198.524C947.074 194.869 949.464 190.44 951.854 185.238C954.385 180.177 956.775 174.413 959.024 167.946C960.571 163.728 962.047 159.51 963.453 155.292C965 150.934 966.546 146.576 968.093 142.218C963.031 150.372 957.97 156.909 952.909 161.83C947.707 166.751 942.927 169.211 938.569 169.211C935.054 169.211 932.242 167.594 930.133 164.361C927.884 161.268 926.759 156.98 926.759 151.497C926.759 138.281 932.664 124.503 944.473 110.163C946.442 107.773 948.691 105.594 951.222 103.625C953.752 101.657 956.494 99.8998 959.446 98.3534C965.492 95.2604 971.326 93.7139 976.95 93.7139C983.839 93.7139 989.322 95.9633 993.399 100.462C994.383 101.446 994.875 102.571 994.875 103.836C994.875 106.226 993.61 107.14 991.079 106.578C989.673 101.517 986.44 98.986 981.378 98.986C975.474 98.986 968.514 103.133 960.501 111.428C954.596 117.614 949.464 124.292 945.106 131.462C939.201 141.304 936.249 149.528 936.249 156.136C936.249 160.916 938.006 163.306 941.521 163.306C945.739 163.306 950.519 160.213 955.861 154.027C961.625 147.138 967.882 137.297 974.63 124.503C977.301 119.442 979.41 115.997 980.957 114.17C983.206 111.92 985.877 110.866 988.97 111.006L993.399 111.639C995.086 112.061 996.562 112.131 997.827 111.85C996.843 112.834 995.859 113.889 994.875 115.013C993.891 116.138 993.047 117.263 992.344 118.387C991.079 120.356 989.673 122.886 988.127 125.979C986.58 128.932 985.034 132.447 983.487 136.524C981.8 140.882 980.183 145.1 978.637 149.177C977.231 153.254 975.755 157.12 974.208 160.775C970.693 169.773 967.46 177.576 964.507 184.184C961.555 190.792 958.954 196.275 956.705 200.633C955.158 203.726 953.19 206.538 950.8 209.068C948.55 211.599 945.95 213.989 942.997 216.238C936.108 221.44 928.938 224.041 921.487 224.041ZM1048.42 169.422C1045.32 169.422 1042.79 168.508 1040.82 166.68C1038.01 164.29 1036.61 160.283 1036.61 154.66C1036.61 151.004 1037.24 146.857 1038.51 142.218C1033.73 150.231 1028.73 156.769 1023.53 161.83C1018.19 166.751 1013.41 169.211 1009.19 169.211C1005.54 169.211 1002.65 167.594 1000.55 164.361C998.296 161.268 997.172 156.98 997.172 151.497C997.172 138.14 1003.15 124.363 1015.1 110.163C1017.07 107.773 1019.31 105.594 1021.85 103.625C1024.38 101.657 1027.12 99.8998 1030.07 98.3534C1036.12 95.2604 1041.95 93.7139 1047.57 93.7139C1054.46 93.7139 1059.95 95.9633 1064.02 100.462C1065.01 101.446 1065.5 102.571 1065.5 103.836C1065.5 106.226 1064.23 107.14 1061.7 106.578C1060.3 101.517 1056.99 98.986 1051.79 98.986C1045.89 98.986 1038.93 103.133 1030.91 111.428C1028.1 114.521 1025.43 117.755 1022.9 121.129C1020.37 124.363 1017.98 127.807 1015.73 131.462C1009.68 141.585 1006.66 149.809 1006.66 156.136C1006.66 160.916 1008.49 163.306 1012.14 163.306C1016.22 163.306 1020.93 160.213 1026.27 154.027C1029.23 150.653 1032.25 146.506 1035.34 141.585C1038.43 136.664 1041.67 130.97 1045.04 124.503C1046.45 121.832 1047.71 119.653 1048.84 117.966C1049.96 116.279 1050.88 115.013 1051.58 114.17C1053.83 111.92 1056.5 110.866 1059.59 111.006L1063.81 111.639C1065.64 112.061 1067.19 112.131 1068.45 111.85C1067.19 113.115 1065.64 115.154 1063.81 117.966C1062.12 120.637 1060.16 124.152 1057.91 128.51C1055.52 133.149 1053.55 137.367 1052 141.163C1050.46 144.959 1049.4 148.333 1048.84 151.286C1048.56 152.692 1048.35 154.027 1048.21 155.292C1048.07 156.417 1048 157.472 1048 158.456C1048 162.111 1048.98 163.939 1050.95 163.939C1053.76 163.939 1057.63 160.846 1062.55 154.66L1063.39 153.605L1066.34 155.503L1065.5 156.769C1059.73 165.204 1054.04 169.422 1048.42 169.422ZM1068.54 170.476C1071.35 163.587 1074.86 155.082 1079.08 144.959C1083.3 134.837 1088.43 123.168 1094.47 109.952C1095.74 107.14 1096.93 104.821 1098.06 102.993C1099.18 101.165 1100.24 99.7593 1101.22 98.7751C1103.19 96.8069 1105.72 95.8227 1108.81 95.8227C1109.1 95.8227 1109.59 95.8227 1110.29 95.8227C1110.99 95.8227 1111.98 95.9633 1113.24 96.2445C1115.21 96.3851 1116.69 96.3851 1117.67 96.2445C1112.47 99.3375 1104.67 112.975 1094.26 137.156C1095.95 134.766 1098.2 132.165 1101.01 129.354C1103.96 126.401 1107.41 123.168 1111.34 119.653C1113.88 117.263 1116.69 115.013 1119.78 112.904C1122.87 110.655 1126.25 108.546 1129.9 106.578C1138.2 101.938 1144.31 99.6187 1148.25 99.6187C1149.23 99.6187 1149.94 99.689 1150.36 99.8295C1148.11 103.766 1146 107.562 1144.03 111.217C1142.2 114.873 1140.45 118.317 1138.76 121.551C1130.61 137.297 1126.04 148.193 1125.05 154.238C1124.91 155.222 1124.77 156.136 1124.63 156.98C1124.63 157.823 1124.63 158.596 1124.63 159.299C1124.63 162.955 1125.97 164.782 1128.64 164.782C1133 164.782 1138.2 160.354 1144.24 151.497L1147.2 153.605C1140.03 164.431 1132.78 169.844 1125.47 169.844C1116.62 169.844 1112.19 165.274 1112.19 156.136C1112.19 148.685 1116.76 137.648 1125.9 123.027C1127.3 120.778 1128 118.88 1128 117.333C1128 115.646 1127.23 114.802 1125.68 114.802C1124.14 114.802 1122.1 115.646 1119.57 117.333C1117.18 118.88 1114.3 121.199 1110.92 124.292C1105.58 129.213 1100.59 135.118 1095.95 142.007C1091.31 148.755 1087.09 156.487 1083.3 165.204C1082.45 167.313 1080.27 168.578 1076.76 169C1072.26 169.422 1069.52 169.914 1068.54 170.476Z" fill="#EBF4F6"/>
</svg>
