<svg width="458" height="382" viewBox="0 0 458 382" fill="none" xmlns="http://www.w3.org/2000/svg">
<path d="M5.14163 257.335C0.344398 261.149 -0.23988 268.142 0.0676349 271.161L2.14329 268.539L6.29474 264.01L11.83 260.673L16.2121 258.527L18.7491 255.428H21.7474L24.0537 256.143L27.052 254.713L31.4341 253.283L36.7387 252.568L41.3514 251.614L45.2722 250.422L53.1139 249.707L56.3428 247.8L58.4185 248.515L59.341 252.568L60.0329 258.527L63.4925 261.388H67.8746L70.6422 265.678L70.1809 270.684H73.8711L77.1 275.214V280.219L72.9486 282.126L72.2567 284.033V285.94L74.563 286.656L77.1 284.749L79.637 284.033L82.6353 284.749L84.4804 285.94L86.5561 284.749L88.8624 286.656L90.4769 287.609H93.4752L96.4734 289.039L98.3185 291.185L99.7024 292.615V294.999L100.856 298.813L102.239 302.627L102.931 306.918L102.239 310.016L100.856 312.4L96.9347 316.453L95.0896 320.267L92.0914 324.796L87.9399 328.848L87.0174 332.424L86.0948 335.284L84.711 336.715V338.383L83.7885 341.244H84.711L86.5561 340.29L87.9399 339.575L89.0931 338.383H91.6301L93.2445 337.668L95.0896 338.383L96.0122 341.244L97.8573 342.912H99.0104H100.394L103.623 343.389L105.468 342.912L107.775 341.244L109.85 341.959L110.773 340.29V337.668H111.926L115.616 335.999L118.615 332.424L120.229 326.703L122.305 323.127L124.15 321.697L126.917 322.412L129.916 324.319V325.511L128.532 326.703V328.848V331.709L128.993 335.046V337.668V340.29L131.299 339.575L133.375 338.383L135.451 339.575L137.296 341.244L138.449 343.389L139.833 344.819L143.293 345.296L146.06 346.011L145.599 347.203V350.54L146.752 353.401L148.597 356.261L150.673 357.215L152.287 356.261L155.286 353.401L155.978 349.587H157.823L161.052 351.732L163.358 354.831L164.742 358.407L164.05 359.599L162.666 360.552L161.743 362.459V367.465L162.666 372.233L162.897 374.378L164.05 375.093L165.203 373.424L167.048 372.709H168.893L171.891 373.424L172.814 375.57L173.737 377.954L174.428 379.384L176.504 381.291H178.811L181.117 379.384L182.039 378.669L184.115 379.384L185.73 380.576H187.805L189.42 377.954L192.187 373.424L196.108 370.802L200.721 372.709L201.643 370.802L203.95 371.517L206.948 369.849L210.869 369.372L213.406 366.035L214.328 364.366L215.712 361.267L217.327 356.261L220.094 353.401L223.554 351.494H229.32L235.778 347.918L240.39 348.633L245.695 347.918L249.385 348.633L253.306 349.825L256.304 350.54L259.764 351.494L262.301 349.11L264.376 347.918H268.297H271.526L274.524 345.773L277.061 344.343H279.368L282.597 342.197L285.364 340.767L288.593 338.86L291.822 336.715H296.435L300.586 337.906L307.275 347.203L306.352 349.825H307.275L310.734 350.54L312.579 353.878L313.502 357.215L312.579 361.267L308.889 365.32L307.967 368.657L312.579 372.233H317.653L321.113 372.948L323.419 368.657L326.418 367.465L328.955 369.372L332.414 370.326L334.49 365.32L338.231 361.267L338.832 358.643V353.878L337.931 348.405L335.227 340.028L335.828 305.01L336.128 287.286L338.231 267.43L340.033 252.538L341.235 244.161L342.436 237.956L344.239 228.028L344.539 218.1L344.84 211.585V199.796L350.547 188.316L353.551 182.732L357.756 176.217L361.961 171.253L363.781 169.391L365.866 167.944L367.969 163.186L372.174 162.566L376.079 161.945L379.984 161.325H380.585L385.091 158.533L387.193 154.499L387.794 147.984L387.193 141.469L387.794 135.264L389.597 124.716L391.098 118.511L392.901 112.926L394.102 105.48L385.992 102.068L383.289 99.2753L383.889 95.5523L384.79 93.6908L388.095 93.0943L392 90.9489L393.502 88.1064L396.806 87.7961L399.81 86.8654L402.513 85.0039L404.015 82.5219L402.813 79.1092L405.216 77.8682L410.023 82.5219L411.524 85.0039L414.528 84.6936L420.236 85.6244L428.046 80.9706H431.35L436.757 82.8321L439.76 83.4526L443.966 82.5219L444.567 80.9706L442.764 73.2144L443.065 69.4915L444.567 67.0095L451.776 61.1148L454.78 57.702V53.9791L456.282 50.2561L457.183 45.9126V31.3309L457.783 27.9182L455.08 17.3698L454.179 11.4751V6.5111L454.78 0.926636L448.424 10.8546L442.658 17.0524L436.431 22.535L429.051 27.5409L421.901 33.2619L423.054 28.9711L421.901 24.9188L410.83 20.3896L399.529 25.8723H391.688L384.769 18.721L377.619 27.5409L368.163 44.704L359.629 47.5645L352.71 55.6693L345.791 56.3844L344.407 57.8146L345.791 61.1519L346.483 69.4951V80.222L343.023 83.7976H340.717L337.027 84.7511H327.34L318.576 87.6116L292.283 101.676L286.518 106.443L278.676 105.728L271.296 106.443L265.068 110.019L260.686 116.217V130.043L259.533 140.531L255.612 147.682L246.848 161.508L239.929 168.421L233.471 177.479L229.781 180.34L222.17 190.828H213.867H195.878L174.659 186.776L154.824 182.009L125.303 180.102L107.083 186.776L93.0139 195.834L89.3237 196.311L80.5596 201.555L75.4856 202.509L72.2567 201.555L70.6422 205.369L72.7179 209.899L69.9503 217.527L54.959 228.969H46.6561L30.9728 218.48L18.7491 228.253L11.83 237.788L6.75602 251.614L7.9092 257.335H5.14163Z" fill="#A6774E"/>
</svg>
