<svg width="1300" height="377" viewBox="0 0 1300 377" fill="none" xmlns="http://www.w3.org/2000/svg">
<path d="M13.6391 340.316C20.004 339.104 24.2472 337.285 26.3689 334.86C28.642 332.284 29.7786 327.814 29.7786 321.449L30.0059 229.84C30.0059 225.142 29.3998 221.959 28.1874 220.292C27.1266 218.474 25.0807 217.564 22.0498 217.564C20.3828 217.564 18.7916 217.64 17.2761 217.792C15.7607 217.943 14.7757 218.019 14.321 218.019L13.4117 216.883L15.2303 205.289L21.1405 205.517L41.8265 205.744C46.979 205.744 52.8135 205.668 59.3299 205.517C65.8464 205.214 70.3927 204.986 72.969 204.835C90.3967 204.835 103.278 208.623 111.613 216.201C120.1 223.626 124.343 233.78 124.343 246.661C124.343 255.299 121.842 263.558 116.841 271.439C111.992 279.168 105.475 285.381 97.292 290.079C89.1086 294.777 80.4705 297.126 71.3778 297.126H52.0558L51.8284 317.13C51.8284 323.646 52.0558 328.42 52.5104 331.451C52.965 334.33 53.8743 336.3 55.2382 337.361C56.7537 338.422 59.0268 338.952 62.0577 338.952C64.4825 338.952 66.7556 338.876 68.8773 338.725C71.1505 338.573 72.6659 338.422 73.4236 338.27L73.8783 339.407L71.8324 351.682C70.0139 351.53 66.6799 351.379 61.8304 351.227C57.1325 351.076 52.4346 351 47.7367 351C42.1296 351 34.8554 351.227 25.9142 351.682C16.9731 352.137 12.3509 352.515 12.0478 352.819L13.6391 340.316ZM75.0149 283.941C91.3817 280.91 99.5652 269.772 99.5652 250.526C99.5652 239.766 96.4585 231.886 90.2451 226.885C84.0318 221.884 74.2571 219.383 60.9212 219.383C58.3449 219.383 56.7537 219.61 56.1475 220.065C55.6928 220.368 55.3898 221.353 55.2382 223.02C53.8743 240.599 52.965 259.846 52.5104 280.759L75.0149 283.941ZM140.601 341.68C145.299 341.074 148.557 339.71 150.376 337.588C152.195 335.315 153.104 331.602 153.104 326.45L153.331 257.572C153.331 253.784 152.877 251.283 151.967 250.071C151.058 248.707 149.239 248.025 146.512 248.025L140.601 248.252L139.692 246.888L141.056 237.114C143.784 237.114 146.284 237.19 148.557 237.341L165.152 237.568C168.486 237.568 173.184 237.417 179.245 237.114C185.307 236.659 189.323 236.356 191.293 236.205L189.929 247.57C185.838 248.025 182.882 248.707 181.064 249.616C179.245 250.526 178.109 251.814 177.654 253.481C177.2 254.996 176.821 257.572 176.518 261.209C175.002 280.304 174.244 302.278 174.244 327.132C174.244 331.981 175.002 335.088 176.518 336.452C178.185 337.816 181.746 338.498 187.201 338.498C193.718 338.498 198.567 337.891 201.75 336.679C204.932 335.315 207.281 332.815 208.797 329.177C210.464 325.54 211.903 319.782 213.116 311.901L226.527 310.537L227.437 312.129C227.134 314.25 226.452 319.176 225.391 326.904C224.33 334.482 223.345 342.438 222.436 350.773L220.845 352.591C217.359 352.44 210.009 352.137 198.795 351.682C187.58 351.227 177.654 351 169.016 351C162.5 351 156.286 351.227 150.376 351.682C144.617 352.288 140.904 352.667 139.237 352.819L140.601 341.68ZM291.151 353.046C262.812 353.046 248.643 340.24 248.643 314.629V257.572C248.643 253.784 248.188 251.283 247.279 250.071C246.37 248.707 244.627 248.025 242.051 248.025L236.141 248.252L235.686 247.57L237.277 237.114C238.944 237.114 242.202 237.19 247.052 237.341C251.901 237.493 256.978 237.568 262.282 237.568C265.616 237.568 269.632 237.417 274.33 237.114C279.028 236.659 282.134 236.356 283.65 236.205L282.513 247.343C278.422 247.798 275.618 248.707 274.103 250.071C272.739 251.435 271.905 253.708 271.602 256.89L270.238 308.719C270.238 318.266 272.436 325.616 276.83 330.769C281.377 335.921 287.742 338.498 295.925 338.498C312.898 338.498 321.385 330.238 321.385 313.72C321.385 304.476 321.233 294.019 320.93 282.35C320.778 270.53 320.627 262.27 320.475 257.572C320.324 253.632 319.869 251.056 319.111 249.844C318.354 248.631 316.763 248.025 314.338 248.025L307.518 248.252L307.064 247.57L308.655 237.114C310.17 237.114 313.05 237.19 317.293 237.341C321.688 237.493 326.007 237.568 330.25 237.568C334.039 237.568 338.13 237.417 342.525 237.114C346.92 236.811 349.799 236.583 351.163 236.432L350.254 247.116C345.405 248.025 342.222 249.086 340.707 250.298C339.343 251.359 338.661 253.405 338.661 256.436V312.583C338.661 325.616 334.569 335.618 326.386 342.589C318.202 349.56 306.457 353.046 291.151 353.046ZM430.595 353.955C416.956 315.008 406.575 286.669 399.452 268.938H398.088C397.634 275.303 396.725 287.427 395.361 305.309C394.148 323.04 393.542 332.815 393.542 334.633C393.542 336.603 393.997 338.043 394.906 338.952C395.815 339.861 397.331 340.316 399.452 340.316H406.272L406.954 340.998L405.135 351.682C403.468 351.682 400.513 351.53 396.27 351.227C392.027 351.076 387.935 351 383.995 351C380.964 351 377.554 351.152 373.765 351.455C369.977 351.909 367.476 352.212 366.264 352.364L367.173 341.453C370.962 340.998 373.69 339.861 375.357 338.043C377.175 336.073 378.312 332.89 378.766 328.496C379.979 319.1 381.57 305.309 383.54 287.124C385.51 268.787 386.495 258.482 386.495 256.208C386.495 253.178 385.434 251.056 383.313 249.844C381.343 248.48 377.478 247.646 371.72 247.343L370.81 245.979L372.402 236.659C374.22 236.811 377.402 237.038 381.949 237.341C386.495 237.493 390.89 237.568 395.133 237.568C399.073 237.568 402.786 237.493 406.272 237.341C409.757 237.19 412.106 237.038 413.319 236.886C418.774 254.466 424.003 270.605 429.004 285.305C434.156 299.854 437.49 309.098 439.006 313.038H440.37C441.885 309.098 445.219 299.854 450.371 285.305C455.676 270.605 461.283 254.617 467.193 237.341C469.012 237.19 470.906 237.19 472.876 237.341C474.846 237.341 476.589 237.341 478.104 237.341C480.226 237.493 483.181 237.568 486.97 237.568C490.91 237.417 494.774 237.265 498.563 237.114C502.351 236.811 504.928 236.583 506.292 236.432L506.974 237.114L505.61 246.888C500.306 247.343 496.669 248.252 494.698 249.616C492.728 250.98 491.743 253.253 491.743 256.436C491.743 260.073 492.274 269.544 493.335 284.851C494.395 300.157 495.456 313.189 496.517 323.949C497.275 330.466 498.184 334.86 499.245 337.134C500.457 339.255 502.503 340.316 505.382 340.316L510.838 340.089L511.293 340.771L509.701 351.455C508.489 351.455 506.064 351.379 502.427 351.227C498.942 351.076 495.153 351 491.061 351C486.667 351 481.969 351.152 476.968 351.455C471.967 351.758 468.33 352.061 466.056 352.364L467.42 341.453C471.209 340.998 473.861 340.089 475.376 338.725C477.043 337.361 477.877 335.315 477.877 332.587C477.877 329.708 477.195 319.933 475.831 303.263C474.619 286.442 473.785 275 473.331 268.938H471.967C462.268 293.186 451.963 320.994 441.051 352.364L430.595 353.955ZM555.367 351C551.276 351 546.426 351.227 540.819 351.682C535.363 352.288 531.802 352.667 530.135 352.819L531.272 341.907C536.879 340.846 540.592 339.407 542.41 337.588C544.229 335.618 545.138 332.208 545.138 327.359L545.365 257.118C545.365 253.632 544.911 251.283 544.002 250.071C543.244 248.707 541.653 248.025 539.228 248.025L532.863 248.252L531.726 247.116L533.318 237.114C535.288 237.114 538.697 237.19 543.547 237.341C548.548 237.493 553.246 237.568 557.641 237.568C562.338 237.568 567.415 237.417 572.871 237.114C578.327 236.811 582.115 236.583 584.237 236.432C596.815 236.432 606.438 238.781 613.106 243.479C619.774 248.177 623.108 254.996 623.108 263.937C623.108 270.454 621.062 276.137 616.971 280.986C612.879 285.684 608.105 289.094 602.65 291.215C609.772 292.579 616.061 295.534 621.517 300.081C626.973 304.627 629.7 310.462 629.7 317.584C629.7 324.404 627.654 330.466 623.563 335.77C619.623 341.074 614.015 345.241 606.741 348.272C599.619 351.303 591.587 352.819 582.646 352.819C580.675 352.819 576.811 352.515 571.052 351.909C563.778 351.303 558.55 351 555.367 351ZM567.415 286.442C569.082 286.593 571.81 286.821 575.599 287.124C579.539 287.427 582.949 287.654 585.828 287.806C585.828 288.109 587.116 287.578 589.692 286.214C592.42 284.699 594.845 282.502 596.967 279.622C599.088 276.591 600.149 272.727 600.149 268.029C600.149 261.816 597.876 257.194 593.329 254.163C588.783 251.132 581.736 249.616 572.189 249.616C570.977 249.616 570.143 249.844 569.688 250.298C569.385 250.753 569.158 251.662 569.006 253.026C568.249 261.361 567.718 272.5 567.415 286.442ZM566.279 328.268C566.279 332.208 567.643 335.012 570.37 336.679C573.25 338.194 578.099 338.952 584.919 338.952C591.435 338.952 596.512 337.361 600.149 334.178C603.786 330.844 605.605 326.222 605.605 320.312C605.605 315.16 603.862 310.916 600.376 307.582C596.891 304.097 591.738 301.748 584.919 300.535H566.961L566.279 328.268ZM702.055 353.046C673.716 353.046 659.546 340.24 659.546 314.629V257.572C659.546 253.784 659.092 251.283 658.182 250.071C657.273 248.707 655.53 248.025 652.954 248.025L647.044 248.252L646.589 247.57L648.181 237.114C649.848 237.114 653.106 237.19 657.955 237.341C662.805 237.493 667.881 237.568 673.185 237.568C676.519 237.568 680.535 237.417 685.233 237.114C689.931 236.659 693.038 236.356 694.553 236.205L693.417 247.343C689.325 247.798 686.521 248.707 685.006 250.071C683.642 251.435 682.809 253.708 682.505 256.89L681.142 308.719C681.142 318.266 683.339 325.616 687.734 330.769C692.28 335.921 698.645 338.498 706.828 338.498C723.802 338.498 732.288 330.238 732.288 313.72C732.288 304.476 732.137 294.019 731.833 282.35C731.682 270.53 731.53 262.27 731.379 257.572C731.227 253.632 730.773 251.056 730.015 249.844C729.257 248.631 727.666 248.025 725.241 248.025L718.422 248.252L717.967 247.57L719.558 237.114C721.074 237.114 723.953 237.19 728.196 237.341C732.591 237.493 736.91 237.568 741.153 237.568C744.942 237.568 749.034 237.417 753.429 237.114C757.823 236.811 760.703 236.583 762.067 236.432L761.157 247.116C756.308 248.025 753.126 249.086 751.61 250.298C750.246 251.359 749.564 253.405 749.564 256.436V312.583C749.564 325.616 745.473 335.618 737.289 342.589C729.106 349.56 717.361 353.046 702.055 353.046ZM871.05 255.754C871.05 253.026 870.519 251.132 869.458 250.071C868.549 248.859 867.034 248.252 864.912 248.252H858.32L857.865 247.116L859.229 236.886C860.896 237.038 863.851 237.19 868.094 237.341C872.489 237.493 876.884 237.568 881.279 237.568C884.916 237.568 889.008 237.417 893.554 237.114C898.1 236.811 901.056 236.583 902.419 236.432L901.51 247.343C897.115 247.949 894.009 249.086 892.19 250.753C890.372 252.42 889.387 255.072 889.235 258.709L886.735 353.955L871.504 356.228C858.471 336.982 845.287 318.266 831.951 300.081C818.767 281.895 812.174 272.954 812.174 273.257H810.583L810.356 332.587C810.356 335.618 810.81 337.74 811.72 338.952C812.629 340.013 814.22 340.543 816.493 340.543L824.904 340.316L826.041 340.998L823.995 351.682C822.328 351.53 819.297 351.379 814.902 351.227C810.507 351.076 805.961 351 801.263 351C797.474 351 793.307 351.152 788.761 351.455C784.366 351.909 781.486 352.212 780.123 352.364L781.486 341.453C785.275 340.998 788.003 339.937 789.67 338.27C791.488 336.603 792.473 333.951 792.625 330.314L795.125 258.482C795.125 254.693 794.065 252.117 791.943 250.753C789.821 249.237 785.73 248.101 779.668 247.343L778.304 245.979L779.895 236.659C781.259 236.811 784.063 237.038 788.306 237.341C792.549 237.493 796.338 237.568 799.672 237.568C803.46 237.568 806.87 237.493 809.901 237.341C812.932 237.19 814.978 237.038 816.039 236.886C826.95 253.405 837.861 269.166 848.772 284.169C859.684 299.172 866.731 308.795 869.913 313.038H871.504L871.05 255.754ZM972.476 353.046C955.351 353.046 941.788 348.121 931.786 338.27C921.936 328.268 917.01 314.705 917.01 297.58C917.01 284.851 919.662 273.864 924.967 264.619C930.422 255.223 938.151 248.025 948.153 243.024C958.155 238.023 969.9 235.523 983.387 235.523C988.237 235.523 993.313 235.826 998.617 236.432C1004.07 237.038 1008.7 237.72 1012.48 238.478C1016.42 239.235 1018.92 239.69 1019.99 239.842L1021.35 241.66C1021.2 242.418 1020.74 244.236 1019.99 247.116C1019.38 249.995 1018.7 253.784 1017.94 258.482C1017.18 263.18 1016.65 268.181 1016.35 273.485L1000.89 274.621C1000.89 274.015 1000.97 272.878 1001.12 271.211C1001.27 269.393 1001.35 267.347 1001.35 265.074C1001.35 259.921 999.603 256.284 996.117 254.163C992.631 252.041 986.873 250.98 978.841 250.98C966.717 250.98 957.549 254.39 951.335 261.209C945.122 267.877 942.015 277.955 942.015 291.443C942.015 306.294 945.122 317.812 951.335 325.995C957.549 334.178 966.111 338.27 977.022 338.27C980.659 338.27 983.993 337.891 987.024 337.134C990.055 336.376 992.404 335.618 994.071 334.86C995.738 334.103 996.799 333.572 997.254 333.269V315.538C997.254 311.901 996.647 309.552 995.435 308.492C994.374 307.279 992.025 306.673 988.388 306.673H977.704L977.022 305.536L978.841 293.716C981.114 293.716 983.16 293.792 984.978 293.943L1004.07 294.171C1007.86 294.171 1011.57 294.095 1015.21 293.943C1018.85 293.64 1021.2 293.413 1022.26 293.261L1023.4 299.626C1020.52 301.596 1018.62 304.4 1017.71 308.037C1016.8 311.674 1016.35 318.418 1016.35 328.268C1016.35 334.785 1016.73 339.937 1017.48 343.726L1016.12 345.772C1015.21 346.226 1012.86 347.06 1009.07 348.272C1005.29 349.333 1000.13 350.394 993.616 351.455C987.252 352.515 980.205 353.046 972.476 353.046ZM1099.46 351.227L1100.15 341.453C1106.51 340.846 1110.6 340.165 1112.42 339.407C1114.39 338.649 1115.38 337.134 1115.38 334.86C1115.38 332.89 1114.92 330.693 1114.01 328.268L1109.69 313.493C1106.51 313.341 1100.53 313.265 1091.74 313.265C1087.04 313.265 1080.9 313.644 1073.32 314.402L1067.87 328.95C1067.11 331.981 1066.73 333.875 1066.73 334.633C1066.73 336.906 1067.41 338.498 1068.78 339.407C1070.29 340.316 1072.79 340.771 1076.28 340.771H1084.69L1085.6 341.907L1084.23 352.137C1082.57 351.985 1078.93 351.758 1073.32 351.455C1067.72 351.152 1062.41 351 1057.41 351C1052.41 351 1047.86 351.076 1043.77 351.227C1039.68 351.379 1036.95 351.455 1035.59 351.455L1036.95 340.543C1039.98 340.089 1042.41 339.028 1044.23 337.361C1046.2 335.542 1048.02 332.511 1049.68 328.268L1084.01 238.478L1108.1 235.523L1110.15 236.205C1111.97 242.873 1115.83 256.587 1121.74 277.349C1127.65 297.959 1132.96 314.932 1137.65 328.268C1139.02 332.663 1140.76 335.77 1142.88 337.588C1145.16 339.255 1148.64 340.316 1153.34 340.771L1154.02 341.907L1152.66 351.455C1151.14 351.455 1148.19 351.379 1143.79 351.227C1139.55 351.076 1135.15 351 1130.61 351C1124.24 351 1117.95 351.152 1111.74 351.455C1105.68 351.909 1101.81 352.212 1100.15 352.364L1099.46 351.227ZM1091.51 300.763C1097.42 300.763 1102.42 300.535 1106.51 300.081L1094.46 259.164H1092.19L1077.41 300.763H1091.51ZM1257.53 255.754C1257.53 253.026 1257 251.132 1255.94 250.071C1255.03 248.859 1253.52 248.252 1251.4 248.252H1244.8L1244.35 247.116L1245.71 236.886C1247.38 237.038 1250.34 237.19 1254.58 237.341C1258.97 237.493 1263.37 237.568 1267.76 237.568C1271.4 237.568 1275.49 237.417 1280.04 237.114C1284.58 236.811 1287.54 236.583 1288.9 236.432L1287.99 247.343C1283.6 247.949 1280.49 249.086 1278.67 250.753C1276.86 252.42 1275.87 255.072 1275.72 258.709L1273.22 353.955L1257.99 356.228C1244.96 336.982 1231.77 318.266 1218.44 300.081C1205.25 281.895 1198.66 272.954 1198.66 273.257H1197.07L1196.84 332.587C1196.84 335.618 1197.29 337.74 1198.2 338.952C1199.11 340.013 1200.7 340.543 1202.98 340.543L1211.39 340.316L1212.53 340.998L1210.48 351.682C1208.81 351.53 1205.78 351.379 1201.39 351.227C1196.99 351.076 1192.45 351 1187.75 351C1183.96 351 1179.79 351.152 1175.25 351.455C1170.85 351.909 1167.97 352.212 1166.61 352.364L1167.97 341.453C1171.76 340.998 1174.49 339.937 1176.15 338.27C1177.97 336.603 1178.96 333.951 1179.11 330.314L1181.61 258.482C1181.61 254.693 1180.55 252.117 1178.43 250.753C1176.31 249.237 1172.21 248.101 1166.15 247.343L1164.79 245.979L1166.38 236.659C1167.74 236.811 1170.55 237.038 1174.79 237.341C1179.03 237.493 1182.82 237.568 1186.16 237.568C1189.94 237.568 1193.35 237.493 1196.39 237.341C1199.42 237.19 1201.46 237.038 1202.52 236.886C1213.43 253.405 1224.35 269.166 1235.26 284.169C1246.17 299.172 1253.22 308.795 1256.4 313.038H1257.99L1257.53 255.754Z" fill="#EBF4F6"/>
<path d="M493.215 128.664C485.05 128.664 480.668 125.377 480.071 118.805C479.971 116.017 480.718 113.527 482.311 111.336C484.004 109.046 486.145 107.901 488.734 107.901C490.626 107.901 492.269 108.697 493.664 110.291C494.958 111.785 495.605 113.378 495.605 115.071C495.605 119.751 493.415 122.091 489.033 122.091C487.938 122.091 486.892 121.842 485.896 121.344C485 120.946 484.303 120.249 483.805 119.253C484.403 122.838 487.39 124.631 492.767 124.631C493.962 124.631 495.058 124.481 496.054 124.182C504.618 121.892 511.837 116.963 517.713 109.395C520.302 106.108 523.19 101.428 526.376 95.3535C529.563 89.2791 533.098 81.91 536.982 73.2464L556.699 29.4803C557.695 27.2895 558.79 25.3476 559.985 23.6547C561.28 21.8623 562.624 20.1694 564.018 18.5761C551.869 18.1777 539.471 20.0698 526.824 24.2522C513.48 28.7334 503.721 34.8079 497.547 42.4757C494.659 46.1602 493.215 49.546 493.215 52.633C493.215 58.9066 497.746 62.0435 506.808 62.0435C517.962 62.0435 527.023 57.6619 533.994 48.8987C535.687 46.8075 537.28 44.3179 538.774 41.4301C540.367 38.4426 541.811 34.9573 543.106 30.974C543.405 30.2769 543.803 29.9284 544.301 29.9284C545.098 29.9284 545.346 30.4761 545.048 31.5715C544.649 32.866 544.251 34.1606 543.853 35.4552C543.554 36.7497 543.156 37.9945 542.658 39.1895C541.861 41.5794 540.915 43.82 539.82 45.9112C538.724 47.9029 537.529 49.7451 536.235 51.438C529.563 60.7987 520.103 65.479 507.854 65.479C502.178 65.479 497.746 63.9853 494.56 60.9979C491.274 58.0104 489.631 54.2761 489.631 49.7949C489.631 45.8117 491.025 41.7288 493.813 37.5464C498.493 30.4761 507.655 24.8497 521.298 20.6673C527.272 18.8748 533.446 17.5305 539.82 16.6342C546.293 15.6384 552.964 15.1405 559.836 15.1405C561.13 15.1405 562.375 15.1405 563.57 15.1405C564.864 15.1405 566.109 15.1903 567.304 15.2899C573.379 10.012 579.702 7.37314 586.275 7.37314C588.864 7.37314 591.503 7.92083 594.191 9.01623C594.689 9.21539 594.938 9.61372 594.938 10.2112C594.938 11.4062 594.59 11.8543 593.893 11.5556C592.1 10.6593 590.108 10.2112 587.918 10.2112C583.038 10.2112 578.408 12.1531 574.026 16.0367C582.192 16.1363 588.565 17.879 593.146 21.2648C599.619 26.0447 602.556 31.6711 601.959 38.1439C601.062 48.3012 594.739 56.5665 582.988 62.9397C574.026 67.9188 564.765 70.4083 555.205 70.4083C554.508 70.4083 553.761 70.4083 552.964 70.4083C552.267 70.4083 551.521 70.3585 550.724 70.259C550.027 72.4498 549.031 75.0887 547.736 78.1757C546.442 81.1632 544.898 84.5489 543.106 88.333C539.023 96.9966 532.899 105.312 524.733 113.278C514.177 123.535 503.672 128.664 493.215 128.664ZM555.056 67.1221C561.827 67.1221 568.25 65.0309 574.325 60.8485C580.001 56.9648 584.631 51.687 588.216 45.015C589.81 42.0276 590.606 39.1397 590.606 36.3514C590.606 31.3723 588.615 27.2397 584.631 23.9535C580.648 20.7669 575.918 19.3727 570.441 19.7711C568.748 21.9618 566.906 25.248 564.914 29.6296C562.923 33.9116 560.831 39.2891 558.641 45.7619C557.446 49.2472 556.3 52.7824 555.205 56.3673C554.11 59.9523 553.014 63.4874 551.919 66.9728C552.417 67.0723 552.915 67.1221 553.413 67.1221C554.01 67.1221 554.558 67.1221 555.056 67.1221ZM591.632 120.597C587.748 120.597 584.412 119.353 581.624 116.863C580.13 115.469 579.035 113.876 578.338 112.083C577.74 110.191 577.442 108.05 577.442 105.66C577.442 96.4987 581.226 87.387 588.794 78.3251C595.167 70.6573 601.789 66.8234 608.661 66.8234C610.951 66.8234 612.893 67.4209 614.486 68.6159C616.179 70.01 617.025 71.8025 617.025 73.9933C617.025 79.4703 613.391 84.9473 606.121 90.4242C603.831 92.1171 600.794 93.6109 597.01 94.9054C592.827 96.2996 589.79 96.9966 587.898 96.9966C586.504 100.382 585.807 103.967 585.807 107.751C585.807 114.224 588.197 117.461 592.976 117.461C599.25 117.461 605.125 113.378 610.602 105.212L611.2 104.316L613.739 105.361L613.291 106.258C610.802 111.237 607.665 114.872 603.881 117.162C600.097 119.452 596.014 120.597 591.632 120.597ZM588.794 94.4573C590.487 94.4573 592.827 93.9096 595.815 92.8142C597.507 92.1171 599.101 91.3703 600.594 90.5736C602.188 89.777 603.582 88.8807 604.777 87.8849C610.254 83.3042 612.992 78.4744 612.992 73.3958C612.992 71.205 612.196 70.1096 610.602 70.1096C607.814 70.1096 603.582 73.5452 597.906 80.4163C595.018 83.9016 591.981 88.582 588.794 94.4573ZM629.52 120.597C624.541 120.597 620.707 119.104 618.019 116.116C615.828 113.627 614.732 110.639 614.732 107.154C614.732 102.075 616.326 99.536 619.512 99.536C620.707 99.536 621.803 99.9841 622.798 100.88C623.794 101.876 624.292 103.021 624.292 104.316C624.292 105.113 624.093 105.76 623.695 106.258C622.4 107.851 621.753 109.594 621.753 111.486C621.753 113.378 622.35 114.921 623.545 116.116C624.84 117.411 626.483 118.058 628.475 118.058C630.566 118.058 632.458 117.361 634.151 115.967C636.441 113.876 637.586 110.988 637.586 107.303C637.586 104.117 636.74 100.532 635.047 96.5485C634.35 95.5527 633.503 94.2581 632.508 92.6648C631.611 91.0715 630.566 89.1795 629.371 86.9887C628.674 85.7937 628.176 84.5987 627.877 83.4037C627.678 82.1092 627.578 80.8644 627.578 79.6694C627.578 75.487 629.122 72.151 632.209 69.6615C635.396 67.0723 639.478 65.7778 644.457 65.7778C645.852 65.7778 647.196 65.9272 648.491 66.2259C649.885 66.5246 651.129 67.0723 652.225 67.869C654.515 69.5619 655.66 71.6531 655.66 74.1426C655.66 75.238 655.461 76.2339 655.063 77.1301C654.167 79.7192 652.225 81.0138 649.237 81.0138C645.951 81.0138 644.308 79.3209 644.308 75.9351C644.308 74.9393 644.457 74.0929 644.756 73.3958C645.055 72.4 646.15 71.4041 648.042 70.4083C647.345 69.1138 646.051 68.4665 644.159 68.4665C642.466 68.4665 641.221 68.8648 640.424 69.6615C638.034 71.7527 636.839 74.3916 636.839 77.5782C636.839 79.769 637.437 82.159 638.632 84.7481C638.831 85.1464 640.773 88.2832 644.457 94.1586C646.947 98.1418 648.192 101.478 648.192 104.167C648.192 108.449 646.2 112.233 642.217 115.519C638.234 118.905 634.001 120.597 629.52 120.597ZM666.12 120C658.851 120 655.216 115.569 655.216 106.706C655.216 102.324 656.261 97.6937 658.353 92.8142C661.34 85.7439 665.572 79.769 671.049 74.8895C676.427 70.1096 681.505 67.7196 686.285 67.7196C693.654 67.7196 697.339 72.0514 697.339 80.715C697.339 85.1962 696.243 89.9263 694.053 94.9054C691.464 100.88 687.729 106.308 682.85 111.187C676.775 117.062 671.199 120 666.12 120ZM668.51 116.714C670.8 116.714 673.24 115.768 675.829 113.876C679.115 111.486 682.85 106.507 687.032 98.9385C691.613 90.7728 693.903 84.2004 693.903 79.2213C693.903 74.7401 692.011 72.4995 688.227 72.4995C685.24 72.4995 681.854 74.3916 678.07 78.1757C674.385 81.8602 671.248 86.5406 668.659 92.2167C665.174 99.6853 663.431 105.66 663.431 110.141C663.431 114.523 665.124 116.714 668.51 116.714ZM694.361 121.046C696.352 116.166 698.842 110.141 701.829 102.972C704.817 95.8017 708.452 87.5364 712.734 78.1757C713.63 76.1841 714.476 74.541 715.273 73.2464C716.07 71.9518 716.816 70.956 717.513 70.259C718.908 68.8648 720.7 68.1677 722.891 68.1677C723.09 68.1677 723.439 68.1677 723.936 68.1677C724.434 68.1677 725.131 68.2673 726.028 68.4665C727.422 68.5661 728.467 68.5661 729.165 68.4665C725.48 70.6573 719.953 80.3167 712.584 97.4448C713.779 95.7519 715.372 93.9096 717.364 91.918C719.455 89.8268 721.895 87.5364 724.683 85.0468C726.476 83.3539 728.467 81.7606 730.658 80.2669C732.849 78.6736 735.239 77.1799 737.828 75.7857C743.703 72.4995 748.035 70.8564 750.824 70.8564C751.521 70.8564 752.019 70.9062 752.317 71.0058C750.724 73.7941 749.23 76.4828 747.836 79.0719C746.542 81.6611 745.297 84.1008 744.102 86.3912C738.326 97.5443 735.09 105.262 734.393 109.544C734.293 110.241 734.193 110.888 734.094 111.486C734.094 112.083 734.094 112.631 734.094 113.129C734.094 115.718 735.04 117.013 736.932 117.013C740.019 117.013 743.703 113.876 747.985 107.602L750.077 109.096C744.998 116.764 739.87 120.597 734.691 120.597C728.418 120.597 725.281 117.361 725.281 110.888C725.281 105.61 728.517 97.7933 734.99 87.4368C735.986 85.8435 736.484 84.4991 736.484 83.4037C736.484 82.2088 735.936 81.6113 734.841 81.6113C733.745 81.6113 732.301 82.2088 730.509 83.4037C728.816 84.4991 726.775 86.1422 724.385 88.333C720.6 91.8184 717.065 96.0008 713.779 100.88C710.493 105.66 707.506 111.137 704.817 117.311C704.219 118.805 702.676 119.701 700.186 120C697 120.299 695.058 120.647 694.361 121.046ZM790.098 120.299C787.907 120.299 786.115 119.651 784.721 118.357C782.729 116.664 781.733 113.826 781.733 109.843C781.733 107.254 782.181 104.316 783.077 101.03C779.692 106.706 776.157 111.336 772.472 114.921C768.688 118.407 765.302 120.149 762.315 120.149C759.726 120.149 757.684 119.004 756.19 116.714C754.597 114.523 753.8 111.486 753.8 107.602C753.8 98.1418 758.033 88.3828 766.497 78.3251C767.891 76.6322 769.485 75.0887 771.277 73.6945C773.07 72.3004 775.011 71.0556 777.103 69.9602C781.385 67.7694 785.517 66.674 789.501 66.674C794.38 66.674 798.264 68.2673 801.152 71.4539C801.849 72.151 802.197 72.9477 802.197 73.8439C802.197 75.5368 801.301 76.1841 799.508 75.7857C798.513 72.2008 796.172 70.4083 792.488 70.4083C788.306 70.4083 783.376 73.346 777.7 79.2213C775.708 81.4121 773.816 83.7025 772.024 86.0924C770.231 88.3828 768.539 90.8226 766.945 93.4117C762.663 100.582 760.522 106.407 760.522 110.888C760.522 114.274 761.817 115.967 764.406 115.967C767.294 115.967 770.63 113.776 774.414 109.395C776.505 107.005 778.646 104.067 780.837 100.582C783.028 97.0962 785.318 93.0632 787.708 88.4824C788.704 86.5904 789.6 85.0468 790.397 83.8519C791.193 82.6569 791.841 81.7606 792.339 81.1631C793.932 79.5698 795.824 78.823 798.015 78.9226L801.002 79.3707C802.297 79.6694 803.392 79.7192 804.288 79.52C803.392 80.4163 802.297 81.8602 801.002 83.8519C799.807 85.7439 798.413 88.2334 796.82 91.3205C795.127 94.6067 793.733 97.5941 792.637 100.283C791.542 102.972 790.795 105.361 790.397 107.453C790.198 108.449 790.048 109.395 789.949 110.291C789.849 111.087 789.799 111.834 789.799 112.531C789.799 115.12 790.496 116.415 791.89 116.415C793.882 116.415 796.621 114.224 800.106 109.843L800.703 109.096L802.795 110.44L802.197 111.336C798.114 117.311 794.081 120.299 790.098 120.299Z" fill="#EBF4F6"/>
</svg>
